<?xml version="1.0" encoding="utf-8"?>
<!-- Generator: Adobe Illustrator 21.0.0, SVG Export Plug-In . SVG Version: 6.00 Build 0)  -->
<svg version="1.1" id="图层_1" xmlns="http://www.w3.org/2000/svg" xmlns:xlink="http://www.w3.org/1999/xlink" x="0px" y="0px"
	 viewBox="0 0 1024 1024" style="enable-background:new 0 0 1024 1024;" xml:space="preserve">
<style type="text/css">
	.st0{fill:#FF6600;}
</style>
<g>
	<path class="st0" d="M623,535.9c-3.2-1.6-8-3.4-14.1-5.8c-5.5-2-10.9-4.2-16.3-6.4c-4.4,4.3-8.3,9.6-11.7,15.9
		c-3.4,6.3-5.1,13.2-5.1,20.8c0,11.4,3.7,20.5,11.1,27.3c7.4,6.8,17.2,10.2,29.4,10.2c3.3,0,7-0.5,11.2-1.6c4-1,7.8-2.6,11.2-4.9
		c3.5-2.3,6.4-5.4,8.7-8.9c2.2-3.4,3.3-8,3.3-13.8c0-8-1.7-14.1-5.2-18.4C641.9,546.1,634.5,541.3,623,535.9L623,535.9z
		 M604.2,475.9c3.2,1.5,6.9,3.1,11.2,4.8c4.3,1.6,10.1,3.8,17.3,6.4c4.3-5.6,7.5-11,9.6-16.2c2-5.2,3-11.1,3-17.8
		c0-8.3-2.8-15-8.5-19.9c-5.6-5-13.2-7.5-22.9-7.5c-9.2,0-16.7,2.2-22.4,6.7c-5.6,4.5-8.5,10-8.5,16.6c0,6.5,1.8,11.9,5.2,15.8
		C591.6,468.8,597,472.5,604.2,475.9L604.2,475.9z M411.7,522c-3.7-3-8-5.2-12.7-6.3c-4.9-1.2-9.9-1.7-15-1.7
		c-4.4,0-8.9,0.6-13.6,1.7c-4.7,1.1-9,2.5-13.1,4.1c0,1.1,0,2.9-0.2,5.4c-0.1,3.2-0.1,6.4-0.1,9.5c0,14,1.2,25.3,3.7,33.8
		c2.5,8.5,5.7,15,9.5,19.4c2.9,3.5,6.3,6,10,7.6c3.8,1.5,7.8,2.3,11.9,2.3c3.3,0,7-0.8,10.9-2.4c3.9-1.6,7.3-4.1,10-7.4
		c3.2-3.8,5.7-8.2,7.5-12.9c1.7-4.6,2.6-11.7,2.6-21.1c0-7.9-1-14.4-3-19.5C418.3,529.2,415.4,525.1,411.7,522L411.7,522z
		 M829.7,475.9c3.2,1.5,6.9,3.1,11.2,4.8c4.3,1.6,10.1,3.8,17.3,6.4c4.4-5.6,7.6-11,9.6-16.2c2-5.2,3.1-11.1,3.1-17.8
		c0-8.3-2.9-15-8.4-19.9c-5.7-5-13.3-7.5-23-7.5c-9.2,0-16.7,2.2-22.3,6.7c-5.7,4.5-8.5,10-8.5,16.6c0,6.5,1.7,11.9,5.1,15.8
		C817.2,468.8,822.5,472.5,829.7,475.9L829.7,475.9z M829.7,475.9"/>
	<path class="st0" d="M896,0H128C57.3,0,0,57.3,0,128v768c0,70.7,57.3,128,128,128h768c70.7,0,128-57.3,128-128V128
		C1024,57.3,966.7,0,896,0L896,0z M251.4,634.3h-166v-42.8h53V462h-53v-39.9c7.8,0,15.4-0.5,23.1-1.5c7.7-1,13.7-2.5,18.4-4.8
		c5.4-2.6,9.6-6.1,12.6-10.6c3-4.5,4.7-9.9,5.2-16.5h55v202.8h51.8L251.4,634.3L251.4,634.3z M461.5,614.4
		c-16.8,16.6-39.8,24.9-69.1,24.9c-14.6,0-27.7-2.1-39.2-6.2C341.8,629,332,623,324,615c-9.6-9.4-16.9-21.6-22-36.5
		c-5.1-14.9-7.6-32.7-7.6-53.4c0-21.5,2.3-40.5,7.1-57.2c4.8-16.7,12.4-31.4,23.1-44.2c10.3-12.2,23.7-21.7,40.2-28.5
		c16.5-6.9,36.2-10.3,58.8-10.3c8.2,0,16.5,0.5,24.7,1.5c8.3,1.1,13.9,1.9,17,2.5V437h-4.5c-3-1.4-7.8-3-14.5-4.8
		c-6.8-1.7-14.5-2.6-23.2-2.6c-19.8,0-35,5-45.7,15.1c-10.7,10.1-17.3,24.5-19.8,43.4c8.2-5.2,16.6-9.3,25.1-12.3
		c8.5-3.1,18.1-4.6,28.8-4.6c9,0,17.5,1.2,25.4,3.5c8,2.4,15,5.8,21.3,10.3c8.7,6.5,15.5,14.9,20.7,25.5c5.1,10.5,7.7,24,7.7,40.4
		C486.7,576.7,478.3,597.8,461.5,614.4L461.5,614.4z M706.5,595.5c-4.5,9-11,16.8-19.6,23.4c-8.5,6.6-19,11.7-31.4,15.5
		c-12.3,3.7-26.4,5.6-42.4,5.6c-16.9,0-31.7-1.9-44.5-5.7c-12.7-3.7-23.2-8.9-31.3-15.4c-8-6.5-13.9-14.1-17.8-22.9
		c-3.8-8.8-5.8-18.2-5.7-27.8c0-14,4-25.7,11.9-35c7.9-9.3,19.4-17.1,34.5-23.3v-1c-14.8-7-25-15.5-30.9-25.5
		c-5.9-10-8.8-21.1-8.8-33.3c-0.1-8.8,2-17.5,6.1-25.3c4.1-7.9,10.2-15,18.2-21.2c7.7-5.9,17.4-10.7,29.1-14.2
		c11.8-3.5,25-5.3,39.7-5.3c15.5,0,29.1,1.6,40.6,4.8c11.5,3.3,21,7.5,28.5,12.8c7.7,5.3,13.5,11.8,17.6,19.4
		c4.1,7.6,6.2,16.1,6.1,24.8c0,11.6-3.5,22.1-10.4,31.5c-6.9,9.4-17.5,17.2-31.8,23.6v1c16.7,6.6,29,15.2,36.9,25.9
		c7.9,10.7,11.8,23.5,11.8,38.4C713.1,576.7,710.9,586.5,706.5,595.5L706.5,595.5z M932,595.5c-4.5,9-11,16.8-19.5,23.4
		c-8.5,6.6-19,11.7-31.3,15.5c-12.4,3.7-26.5,5.6-42.4,5.6c-16.9,0-31.8-1.9-44.5-5.7c-12.7-3.7-23.1-8.9-31.3-15.4
		c-8-6.5-13.9-14.1-17.7-22.9c-3.9-8.8-5.8-18.2-5.8-27.8c0-14,4-25.7,11.9-35c7.9-9.3,19.5-17.1,34.6-23.3v-1
		c-14.8-7-25.1-15.5-31-25.5c-5.9-10-8.8-21.1-8.8-33.3c0-9,2-17.4,6.1-25.3c4.1-7.9,10.1-15,18.2-21.2c7.7-5.9,17.4-10.7,29.2-14.2
		c11.8-3.5,25-5.3,39.6-5.3c15.5,0,29.1,1.6,40.6,4.8c11.5,3.3,21,7.5,28.5,12.8c7.7,5.3,13.5,11.8,17.6,19.4
		c4.1,7.6,6.1,15.9,6.1,24.8c0,11.6-3.5,22.1-10.4,31.5c-6.9,9.4-17.5,17.2-31.8,23.6v1c16.7,6.6,29,15.2,36.8,25.9
		c7.9,10.7,11.8,23.5,11.8,38.4C938.7,576.7,936.4,586.5,932,595.5L932,595.5z M932,595.5"/>
	<path class="st0" d="M848.5,535.9c-3.3-1.6-7.9-3.4-14.1-5.8c-5.5-2-10.9-4.2-16.3-6.4c-4.4,4.3-8.3,9.6-11.7,15.9
		c-3.4,6.3-5.2,13.2-5.2,20.8c0,11.4,3.7,20.5,11.2,27.3c7.5,6.8,17.2,10.2,29.4,10.2c3.3,0,7-0.5,11.2-1.6c4-1,7.8-2.6,11.2-4.9
		c3.5-2.4,6.4-5.4,8.7-8.9c2.2-3.4,3.3-8,3.3-13.8c0-8-1.8-14.1-5.3-18.4C867.5,546.1,860,541.3,848.5,535.9L848.5,535.9z
		 M848.5,535.9"/>
</g>
</svg>
