<?xml version="1.0" encoding="utf-8"?>
<!-- Generator: Adobe Illustrator 21.0.0, SVG Export Plug-In . SVG Version: 6.00 Build 0)  -->
<svg version="1.1" id="图层_1" xmlns="http://www.w3.org/2000/svg" xmlns:xlink="http://www.w3.org/1999/xlink" x="0px" y="0px"
	 viewBox="0 0 1024 1024" style="enable-background:new 0 0 1024 1024;" xml:space="preserve">
<style type="text/css">
	.st0{clip-path:url(#SVGID_2_);fill:#EC1C24;}
	.st1{fill:#231F20;}
</style>
<g>
	<g>
		<defs>
			<rect id="SVGID_1_" y="47.4" width="1024" height="929.2"/>
		</defs>
		<clipPath id="SVGID_2_">
			<use xlink:href="#SVGID_1_"  style="overflow:visible;"/>
		</clipPath>
		<path class="st0" d="M-0.1,244.3L279.7,47.6l-42.9,658H32.6l75.6-461.4H-0.1z M-0.1,244.3"/>
	</g>
	<path class="st1" d="M431,551.9c73.1,0,133.6-60.5,133.6-133.6c0-73.1-60.5-133.6-133.6-133.6c-73.1,0-133.6,60.5-133.6,133.6
		C297.3,493.9,357.8,551.9,431,551.9L431,551.9z M431,332.5c47.9,0,85.7,37.8,85.7,85.7c0,47.9-37.8,85.7-85.7,85.7
		c-47.9,0-85.7-37.8-85.7-85.7C345.2,370.3,383.1,332.5,431,332.5L431,332.5z M279.7,632.5h78.2v70.6h25.2c0,0,80.7,0,121,45.4
		c17.6,20.2,27.7,42.9,25.2,75.6c0,32.8-12.6,55.5-30.3,73.1C456.2,932.5,385.6,925,385.6,925l-5,47.9c0,0,10.1,2.5,25.2,2.5
		c30.3,0,85.7-5,126.1-40.3c30.3-25.2,45.4-63,47.9-108.4c2.5-45.4-12.6-80.7-40.3-110.9c-40.3-40.3-98.3-52.9-131.1-58v-22.7h186.6
		v-47.9H279.7V632.5z M1023.4,443.4v-47.9H892.3v-47.9h-47.9v47.9H705.8v196.6l-40.3-37.8c-17.6,20.2-37.8,40.3-55.5,60.5l22.7,20.2
		l22.7-25.2l98.3,90.8V443.4h90.8v166.4c-52.9,17.6-90.8,68.1-90.8,126.1c0,73.1,60.5,133.6,133.6,133.6
		c73.1,0,133.6-60.5,133.6-133.6c0-73.1-58-131.1-128.6-133.6v-75.6h103.4v-47.9H892.3v-35.3H1023.4z M973,735.9
		c0,47.9-37.8,85.7-85.7,85.7c-47.9,0-85.7-37.8-85.7-85.7c0-47.9,37.8-85.7,85.7-85.7C935.2,650.2,973,688,973,735.9L973,735.9z
		 M355.3,173.7v7.6h-25.2l-5,63h-7.6l5-65.5h-25.2v-7.6h58V173.7z M373,171.2l-2.5,30.3l7.6-7.6c2.5-2.5,5-2.5,10.1-2.5
		c5,0,10.1,2.5,12.6,5c2.5,2.5,5,7.6,2.5,15.1l-2.5,32.8h-7.6l2.5-32.8c0-5,0-7.6-2.5-10.1c-2.5-2.5-5-5-10.1-5c-5,0-7.6,2.5-10.1,5
		c-2.5,5-5,10.1-5,15.1l-2.5,27.7h-7.6l7.6-73.1H373z M458.7,198.9c2.5,5,5,12.6,5,20.2h-40.3c0,5,0,10.1,2.5,12.6
		c2.5,2.5,7.6,5,10.1,5c5,0,7.6,0,10.1-2.5c2.5-2.5,5-5,5-7.6h7.6c-2.5,5-5,10.1-7.6,12.6c-5,5-10.1,5-17.6,5
		c-7.6,0-12.6-2.5-17.6-7.6c-5-5-5-12.6-5-20.2c0-7.6,2.5-15.1,7.6-20.2c5-5,10.1-7.6,17.6-7.6C448.6,191.3,453.7,193.9,458.7,198.9
		L458.7,198.9z M428.4,203.9c-2.5,2.5-5,7.6-5,12.6h32.8c0-10.1-5-17.6-15.1-17.6C436,198.9,431,198.9,428.4,203.9L428.4,203.9z
		 M554.5,176.2c5,5,7.6,10.1,7.6,17.6h-7.6c0-5-2.5-10.1-5-12.6c-2.5-2.5-7.6-5-12.6-5c-5,0-10.1,0-12.6,2.5c-2.5,2.5-5,5-5,10.1
		c0,2.5,2.5,7.6,5,7.6c2.5,0,5,2.5,12.6,5c10.1,2.5,15.1,5,17.6,7.6c5,2.5,7.6,7.6,7.6,15.1c0,5-2.5,10.1-10.1,15.1
		c-5,2.5-12.6,5-20.2,5c-7.6,0-15.1-2.5-20.2-5c-5-5-7.6-10.1-7.6-20.2h7.6c0,5,2.5,10.1,5,12.6c2.5,2.5,7.6,5,15.1,5
		c5,0,10.1,0,15.1-2.5c5-2.5,5-5,5-10.1c0-5-2.5-7.6-5-10.1c-2.5,0-7.6-2.5-15.1-5c-7.6-2.5-12.6-5-15.1-5c-5-2.5-7.6-7.6-7.6-15.1
		c0-5,2.5-10.1,10.1-15.1c5-2.5,10.1-5,17.6-5C541.9,171.2,549.5,173.7,554.5,176.2L554.5,176.2z M584.7,193.9h12.6v7.6h-12.6
		l-2.5,32.8v5l2.5,2.5h7.6v7.6h-7.6c-5,0-7.6,0-10.1-2.5c-2.5-2.5-2.5-5-2.5-10.1l2.5-32.8h-10.1v-7.6h10.1v-12.6l7.6-2.5
		L584.7,193.9z M647.8,198.9c5,5,5,12.6,5,20.2c0,7.6-2.5,15.1-7.6,20.2c-5,5-12.6,7.6-20.2,7.6c-7.6,0-12.6-2.5-17.6-7.6
		c-5-5-5-12.6-5-20.2c0-7.6,2.5-15.1,7.6-20.2c5-5,12.6-7.6,20.2-7.6C637.7,191.3,645.3,193.9,647.8,198.9L647.8,198.9z
		 M617.5,203.9c-2.5,5-5,7.6-5,15.1c0,5,0,10.1,2.5,15.1c2.5,5,7.6,7.6,12.6,7.6c5,0,10.1-2.5,12.6-7.6c2.5-5,5-10.1,5-15.1
		c0-5,0-10.1-2.5-15.1c-2.5-5-7.6-7.6-12.6-7.6C625.1,198.9,620,201.4,617.5,203.9L617.5,203.9z M695.7,193.9v7.6h-7.6
		c-5,0-7.6,2.5-10.1,5c-2.5,2.5-5,7.6-5,12.6l-2.5,25.2h-7.6l2.5-50.4h7.6v10.1c2.5-2.5,2.5-5,5-7.6c2.5-2.5,5-2.5,10.1-2.5
		C693.2,191.3,695.7,191.3,695.7,193.9L695.7,193.9z M743.6,198.9c2.5,5,5,12.6,5,20.2h-40.3c0,5,0,10.1,2.5,12.6
		c2.5,2.5,5,5,10.1,5c5,0,7.6,0,10.1-2.5c2.5-2.5,5-5,5-7.6h10.1c-2.5,5-5,10.1-7.6,12.6c-5,5-10.1,5-17.6,5
		c-7.6,0-12.6-2.5-17.6-7.6c-5-5-5-12.6-5-20.2c0-7.6,2.5-15.1,7.6-20.2c5-5,10.1-7.6,17.6-7.6C733.5,191.3,738.5,193.9,743.6,198.9
		L743.6,198.9z M713.3,203.9c-2.5,2.5-5,7.6-5,12.6h32.8c0-10.1-5-17.6-15.1-17.6C720.9,198.9,715.8,198.9,713.3,203.9L713.3,203.9z
		 M713.3,203.9"/>
</g>
</svg>
