<?xml version="1.0" encoding="utf-8"?>
<!-- Generator: Adobe Illustrator 21.0.0, SVG Export Plug-In . SVG Version: 6.00 Build 0)  -->
<svg version="1.1" id="图层_1" xmlns="http://www.w3.org/2000/svg" xmlns:xlink="http://www.w3.org/1999/xlink" x="0px" y="0px"
	 viewBox="0 0 1024 1024" style="enable-background:new 0 0 1024 1024;" xml:space="preserve">
<style type="text/css">
	.st0{fill:#FF9900;}
</style>
<g>
	<g>
		<path d="M593.9,312.3c-85.1,9.4-195.2,15.4-275.1,49.5c-92,39.2-156.2,118.6-156.2,234.6c0,149.4,95.5,224.4,218.7,224.4
			c104.1,0,160.5-23.8,241.2-104.1c26.9,37.5,35.5,56.3,84.2,95.6c11.3,5.9,25.1,5.1,34.7-3.4c29.5-25.5,82.4-70.8,112-95.5
			c12.1-9.5,9.6-24.7,0.8-38.4c-26.9-36.7-55.6-65.7-55.6-133.2V319.1c0-94.7,6.9-181.7-64.2-247.4C678.1,18.8,585.2,0,514,0
			C375.2,0,219.9,51.2,186.9,220.2c-3.5,17.9,9.6,27.4,21.7,29.9l141.5,15.4c13-0.8,22.6-13.7,25.1-26.5
			c12.1-58,61.6-86.2,117.2-86.2c30.3,0,64.2,11.1,82.4,37.5c20.9,29.9,17.4,70,17.4,104.1v17.9H593.9z M566.1,611.8
			c-23.4,40.1-59.8,65.7-101.6,65.7c-56.4,0-88.6-41.8-88.6-104.1c0-122,112-145,217.8-145v30.7
			C593.9,514.5,594.7,561.4,566.1,611.8L566.1,611.8z M566.1,611.8"/>
		<path class="st0" d="M901.1,877.2C777.8,928.4,644.2,953,522.8,953c-180.6,0-354.9-48.7-496.4-129.6c-12.1-6.8-21.7,5.1-11.3,14.5
			C146.1,954,318.8,1024,510.6,1024c137.1,0,296-42.6,406.1-122C934.9,889.1,920.1,868.5,901.1,877.2L901.1,877.2z M901.1,877.2"/>
		<path class="st0" d="M1009.6,815.6c-12.1-14.5-114.5-27.4-177.9,16.2c-9.6,6.8-7.8,16.2,2.5,14.5c35.5-4.2,113.7-13.7,128.4,4.2
			c13.8,17.9-15.7,90.4-28.6,122.9c-4.4,10.3,4.4,13.7,13.8,5.9C1006,931.7,1021.7,830.2,1009.6,815.6L1009.6,815.6z M1009.6,815.6"
			/>
	</g>
</g>
</svg>
