<?xml version="1.0" encoding="utf-8"?>
<!-- Generator: Adobe Illustrator 21.0.0, SVG Export Plug-In . SVG Version: 6.00 Build 0)  -->
<svg version="1.1" id="图层_1" xmlns="http://www.w3.org/2000/svg" xmlns:xlink="http://www.w3.org/1999/xlink" x="0px" y="0px"
	 viewBox="0 0 1024 1024" style="enable-background:new 0 0 1024 1024;" xml:space="preserve">
<style type="text/css">
	.st0{fill:#FE301B;}
	.st1{fill:#FFFFFF;}
</style>
<g>
	<path class="st0" d="M159.9,0h704.3c86.3,0.3,156.2,70.2,156.5,156.5v711.2c-0.3,86.3-70.2,156.2-156.5,156.4H159.9
		C73.6,1023.8,3.7,953.9,3.4,867.6V156.5C3.7,70.2,73.6,0.3,159.9,0L159.9,0z M159.9,0"/>
	<path class="st1" d="M385,798.8c-86.3-0.3-165-49.5-202.9-127c-4.4-14.1,2.2-29.3,15.5-35.8c13.3-6.5,29.3-2.3,37.7,9.8
		c28,57.1,86,93.4,149.6,93.6h1.4c80.5-0.5,149.1-58.5,163-137.7c13.9-79.3-30.9-157.1-106.4-184.9c-75.5-27.8-160.1,2.4-200.9,71.7
		c-9.4,11.2-25.5,14-38.1,6.5c-12.6-7.4-18-22.8-12.8-36.5c55.3-93.9,169.9-134.9,272.3-97.2C565.6,399.2,626.3,504.6,607.6,612
		C588.8,719.4,496,798,386.9,798.8H385z M385,798.8"/>
	<path class="st1" d="M468.5,602.7H150.8c-11.6,1.8-23.3-3.4-29.7-13.3c-6.4-9.9-6.4-22.6,0-32.5c6.4-9.9,18-15.1,29.7-13.3h317.7
		c11.6-1.8,23.3,3.4,29.7,13.3c6.4,9.9,6.4,22.6,0,32.5C491.8,599.2,480.2,604.4,468.5,602.7L468.5,602.7z M394.5,406.6
		c-16.5,0-29.9-13.4-29.9-29.9V254.9c2.1-14.7,14.7-25.7,29.6-25.7c14.9,0,27.5,11,29.6,25.7V377
		C423.7,393.1,410.7,406.3,394.5,406.6L394.5,406.6z M308.2,299.2c0,27.5-22.3,49.9-49.9,49.9c-27.5,0-49.9-22.3-49.9-49.9
		c0-27.5,22.3-49.9,49.9-49.9C285.8,249.3,308.2,271.6,308.2,299.2L308.2,299.2z M581.1,299.2c0,27.5-22.3,49.9-49.9,49.9
		c-27.5,0-49.9-22.3-49.9-49.9c0-27.5,22.3-49.9,49.9-49.9C558.8,249.3,581.1,271.6,581.1,299.2L581.1,299.2z M677.1,798.8
		c-36.7,0-72.8-8.9-105.3-26l27.6-52.4c51.9,27.3,114.3,25.3,164.4-5.2c50-30.5,80.4-85.2,79.8-143.8c0.5-43.8-16.5-86-47.4-117.1
		c-31.7-31-74.5-48.2-118.9-47.7h-1.6c-25.7,0.2-51.1,6.4-74,18.1l-26.9-52.8c31.2-15.9,65.7-24.3,100.7-24.6h2.1
		c60-0.5,117.7,22.8,160.5,64.9c42,42.2,65.4,99.5,64.7,159.1c0.1,59.7-23.3,117-65.1,159.6c-41.7,42.9-98.8,67.4-158.7,67.8H677.1z
		 M677.1,798.8"/>
	<path class="st1" d="M643.1,543.5h129.9v59.1H643.1V543.5z M686.6,406.6c-7.9,0-15.5-3.1-21.2-8.8c-5.6-5.6-8.8-13.2-8.8-21.2
		V254.9c2.2-14.6,14.8-25.4,29.6-25.4c14.8,0,27.3,10.8,29.6,25.4V377C715.7,393.1,702.8,406.2,686.6,406.6L686.6,406.6z
		 M873.2,299.2c0,27.5-22.3,49.9-49.9,49.9c-27.5,0-49.9-22.3-49.9-49.9c0-27.5,22.3-49.9,49.9-49.9
		C850.9,249.3,873.2,271.6,873.2,299.2L873.2,299.2z M873.2,299.2"/>
	<path class="st1" d="M802.5,573.1c0,16.5-13.4,29.9-29.9,29.9s-29.9-13.4-29.9-29.9c0-16.5,13.4-29.9,29.9-29.9
		c7.9,0,15.5,3.2,21.2,8.8C799.4,557.6,802.5,565.2,802.5,573.1L802.5,573.1z M802.5,573.1"/>
</g>
</svg>
