<?xml version="1.0" encoding="utf-8"?>
<!-- Generator: Adobe Illustrator 21.0.0, SVG Export Plug-In . SVG Version: 6.00 Build 0)  -->
<svg version="1.1" id="图层_1" xmlns="http://www.w3.org/2000/svg" xmlns:xlink="http://www.w3.org/1999/xlink" x="0px" y="0px"
	 viewBox="0 0 1024 1024" style="enable-background:new 0 0 1024 1024;" xml:space="preserve">
<style type="text/css">
	.st0{fill:url(#SVGID_1_);}
	.st1{fill:#FFFFFF;}
</style>
<linearGradient id="SVGID_1_" gradientUnits="userSpaceOnUse" x1="814.1409" y1="-11.3234" x2="209.8591" y2="1035.3234">
	<stop  offset="0" style="stop-color:#FA0AF5"/>
	<stop  offset="1" style="stop-color:#FC022B"/>
</linearGradient>
<path class="st0" d="M764,1024H260C116.4,1024,0,907.6,0,764V260C0,116.4,116.4,0,260,0h504c143.6,0,260,116.4,260,260v504
	C1024,907.6,907.6,1024,764,1024z"/>
<g>
	<g>
		<path class="st1" d="M483.6,212.9H267.2c0,0-82.4-6.2-82.4,64.6v115.3c0,0-6.1,81.9,71.9,81.9h186.9c0,0,40,0.5,40-43.1V348
			c0,0,3.1-22.6-22.9-22.6H352.9v37.1h56v74.7H287.3c0,0-28.2,5.1-28.2-32V277.9c0,0-4.3-46.1,46.1-46.1h178.5L483.6,212.9z
			 M741.1,212.8H638.2c-98.6,0-98.2,66.5-98.2,66.5V410c0,68.8,97.7,64.9,97.7,64.9h103.9c0,0,97.7,3.7,97.7-65V279.2
			C839.3,279.2,839.8,212.8,741.1,212.8L741.1,212.8z M764.4,288.1v111.8c0,37.5-37,37.6-37,37.6h-75.7c0,0-37,0-37-37.6V288.1
			c0,0-3.1-56.6,37.4-56.6h74.8C767.5,231.5,764.4,288.1,764.4,288.1L764.4,288.1z M259,811.2h-74.2V549.4H259l75.2,112.4L409,549.4
			h74.7v261.8H409V643l-37.6,56.8h-73.9L260,642.5L259,811.2z M839.3,568.3v-18.9H614.8c0,0-75.1,3.6-75.1,122.7
			c0,10.9,0.4,19.7,0.4,19.7s-0.8,119.5,74.8,119.5h224.5v-18.7H661.1c0,0-46.7,9.4-46.7-101.3H802v-18.7H614.5
			c0,0-3.7-104.5,46.4-104.5C710.9,567.9,839.3,568.3,839.3,568.3L839.3,568.3z M839.3,568.3"/>
	</g>
</g>
</svg>
