<?xml version="1.0" encoding="utf-8"?>
<!-- Generator: Adobe Illustrator 21.0.0, SVG Export Plug-In . SVG Version: 6.00 Build 0)  -->
<svg version="1.1" id="图层_1" xmlns="http://www.w3.org/2000/svg" xmlns:xlink="http://www.w3.org/1999/xlink" x="0px" y="0px"
	 viewBox="0 0 1024 1024" style="enable-background:new 0 0 1024 1024;" xml:space="preserve">
<style type="text/css">
	.st0{fill:#DD2727;}
</style>
<g>
	<path class="st0" d="M594,301.8h-43v423.1h43c75.3,0,131.7-18.9,172-51.2c37.6-35,56.4-88.9,56.4-159S803.6,388,766,355.7
		C725.7,318,669.2,301.8,594,301.8z"/>
	<path class="st0" d="M895,0H129C56.4,0,0,56.6,0,129.3v768C0,967.4,56.4,1024,129,1024h766c69.9,0,129-56.6,129-129.3V129.3
		C1021.3,56.6,964.9,0,895,0z M389.7,598.2c0,70.1-21.5,124-61.8,159c-40.3,35-104.8,51.2-188.1,51.2h-13.4v-86.2h10.8
		c29.6,0,53.8-2.7,72.6-8.1s37.6-13.5,51.1-24.3c10.8-8.1,18.8-21.6,24.2-35c5.4-16.2,8.1-43.1,8.1-83.5V210.2h96.8V598.2z
		 M830.5,735.7c-56.4,48.5-139.8,75.5-247.3,75.5H456.9V212.9h126.3c107.5,0,190.8,24.3,247.3,75.5c56.4,48.5,86,126.7,86,223.7
		C913.8,609,884.2,687.2,830.5,735.7z"/>
</g>
</svg>
