<?xml version="1.0" encoding="utf-8"?>
<!-- Generator: Adobe Illustrator 21.0.0, SVG Export Plug-In . SVG Version: 6.00 Build 0)  -->
<svg version="1.1" id="图层_1" xmlns="http://www.w3.org/2000/svg" xmlns:xlink="http://www.w3.org/1999/xlink" x="0px" y="0px"
	 viewBox="0 0 1024 1024" style="enable-background:new 0 0 1024 1024;" xml:space="preserve">
<style type="text/css">
	.st0{clip-path:url(#SVGID_2_);fill:#F40009;}
	.st1{fill:#FFFFFF;}
	.st2{fill:#F40009;}
</style>
<g>
	<g>
		<defs>
			<rect id="SVGID_1_" width="1024" height="1024"/>
		</defs>
		<clipPath id="SVGID_2_">
			<use xlink:href="#SVGID_1_"  style="overflow:visible;"/>
		</clipPath>
		<path class="st0" d="M888.6,1022.8H134.3c-73.9,0-134.5-60.4-134.5-134.3V135C-0.1,61.1,60.3,0.6,134.3,0.6h754.3
			C962.6,0.6,1023,61.1,1023,135v753.5C1023,962.3,962.6,1022.8,888.6,1022.8L888.6,1022.8z M888.6,1022.8"/>
	</g>
	<path class="st1" d="M286.3,149.4L91.8,286.5l194.5,142.4V149.4z M301.6,149.4v279.5l200.5-138.4L301.6,149.4z M91.8,306.4v277.5
		l191.2-138.7L91.8,306.4z M286.3,459.4v278.2L91.8,595.5L286.3,459.4z M301.6,459.4v278.2l190.8-139.1L301.6,459.4z M308.3,749.6
		l197.1,141.7l-1-279.8L308.3,749.6z M518.1,611.5v279.8l196.5-142.1L518.1,611.5z M530.1,599.5l191.5-141l1,279.1L530.1,599.5z
		 M735.3,458.5v279.1L931.8,597L735.3,458.5z M740,444.2l191.8,139.7V305.4L740,444.2z M735.3,149.4v279.5l196.5-141.7L735.3,149.4z
		 M722.6,149.4L519.1,291.1l203.5,137.8L722.6,149.4z M722.6,149.4"/>
	<path class="st2" d="M386.8,240c-0.4,6.9-6.8,12.4-14.6,12.4c-7.9,0-14.3-5.5-14.6-12.4c-16.5,2.8-22.6,8-35.4,14.5
		c-0.8,0.4-1.3,1.1-1.4,2c-0.1,0.8,0.2,1.7,0.8,2.3l10.4,15.3l5.4-5.5v55c0,3.1,2.5,5.6,5.6,5.6h58.2c3.3,0,6.1-2.7,6.1-6.1v-54.6
		l5.4,5.5l9.7-12.7c1.6-1.6,2.2-6.4,0.1-7.4C409.8,247.8,401.9,241.9,386.8,240L386.8,240z M199.4,326.8c0.2,0.4,4.1,6.7,11.5,7
		c6,0.2,9.9-3.7,10.5-4.4c0.7,0.7,5.6,4.6,12.5,3.7c6.4-0.9,9.9-5.4,10.5-6.2c0.5,0.4,6.3,3.9,11.2,1.5c5.4-2.7,6-9.9,5-14.2
		c-0.6-2.5-1.6-3.3-4.5-7.5c-0.7-0.9-3.4-5.8-9-15.5c-2.3-3.9-5-8.7-8.2-14.3c1-4.7,2.1-9.3,3.3-14c1.3-5.1,2.1-7.4,1-10.2
		c-0.4-0.9-0.7-1.5-3.8-6.2c2.2-4.5,2.1-8.5,0.2-9.8c-1.1-0.8-2.7-0.3-3-0.2c-2.6,0.8-4.5,4-4.5,8.2c-1.3,0.1-4,0.4-6.7,2.3
		c-1.4,0.9-2.6,2.1-3.5,3.5c-1-1.2-2.9-3.5-6.3-4.8c-1.4-0.6-3-0.9-4.5-1c0.2-3.9-1.4-7-4-8c-0.4-0.1-1.8-0.7-3-0.1
		c-2,1.1-2.5,5.1-0.7,10c-1,1.6-2.2,4.2-2.7,7.5c-0.8,4.9,0.2,9.1,1,12c1.4,5.4,2.9,6.5,2.5,9.8c-0.4,2.9-2,5.1-3.3,6.5
		c-6.2,11.1-12.3,22.3-18.5,33.4c-1,4.6,1,9.4,5,11.7C191.2,329.8,195.9,329.5,199.4,326.8L199.4,326.8z M143.2,415.8
		c0.8-10.6,8.9-19,18.5-20c11.1-1.2,22,7.6,23,20c3.2,0.4,8.3,1.5,12.6,5.4c1.9,1.8,4.6,4.9,7.3,16.7c2.3,10,2.8,18.4,3.6,31.8
		c-0.4,1.4-1.4,5.2-5,8.5c-3.7,3.4-7.8,4-9.2,4.2h-59.5c-1.5-0.2-6.3-1.1-10.2-5.2c-3.5-3.6-4.5-7.6-4.8-9.2c-0.1-2.3-1-26.4,6-39.2
		c1.1-1.9,3-5.5,7-8.5C136.6,417.3,140.7,416.3,143.2,415.8L143.2,415.8z M143.2,415.8"/>
	<path class="st1" d="M150.5,415.6H178c0,0-2.7-12-13.7-12C153.2,403.7,150.5,415.6,150.5,415.6L150.5,415.6z M150.5,415.6"/>
	<path class="st2" d="M253.4,636h6.5c0,0-0.8-29.4,0-34c1.7-10,11.1-27,10-33.2c-2.3-13.2-14.8-21.5-16.5-20.7
		c-1.7,0.8-16.5,17.2-21,29.4c-4.5,12.2-12.7,29.2-14,29.4c-1.2,0.2-14.5,2-26.5,6.5c-11.1,4.2-20,8.5-18,12.5c2,4,13.7,10,30.2,10
		c19.8,0,26.5-1.2,30-16c3.4-14.4,3.8-21.3,10.2-27.9c0.5-0.5,4.1-4.2,6.3-3.3c0,0,0.5,0.2,2.5,3.3L253.4,636z M328.6,632.5h87.2
		c0.7-0.2,1.8-0.5,3-1.5c1.8-1.5,2.4-3.6,2.5-4.2v-58.1c-0.4-0.8-1.1-2.3-2.5-3.5c-2.3-2-4.9-2.2-5.8-2.3h-13.5
		c-0.9-2-2.5-3-6.3-8.2c-1.4-1.9-3.6-2.4-5-3H356c-1.1,0.6-3,1-3.8,2.5c-2.7,5.2-5.2,6.6-6,8.7c-5.9,0.2-11.8,0.5-17.7,0.8
		c-0.7,0.1-2,0.5-3.3,1.7c-1.7,1.7-2,3.7-2,4.2v57.6c0.1,0.7,0.7,2.4,2.3,3.7C326.7,632,327.9,632.3,328.6,632.5L328.6,632.5z
		 M437.8,689.4l-5.2,6.7h10.7L437.8,689.4z M383.3,747.8c0.5-3.8,3.6-24.4,22.3-37.9c16.5-12,37.3-12.8,51.9-7.1
		c9.3,3.7,16.6,10.2,17.8,11.3c4.3,3.9,8,7.3,10.8,13c6.5,13.5,4.3,20.7,6.5,20.7c-2.1-1.2-7.3-4-14.5-3.7
		c-6.1,0.2-10.7,2.5-12.7,3.7c-2-1.3-6.3-3.8-12.3-4.2c-3.3-0.2-6.6,0.2-9.8,1.2v42.4c-0.6,1.8-1.8,4.5-4.1,6.9
		c-4.5,4.7-12,7.3-19.1,5.1c-9.5-2.9-13.3-12.8-13.2-17.2c0.1-2,1-3.7,1-3.7c0.2-0.4,2.2-3.9,5.2-3.8c2.7,0.1,4.6,3.2,5.2,5
		c0.9,2.4-0.2,3.3,0.8,5c1.5,2.9,6.7,4.2,9.2,2.5c1.3-0.9,3.9-5.1,3-3.7l1.3-38.7c-2.3-0.7-6.5-1.6-11.7-0.8
		c-3.7,0.6-7.1,1.9-10.2,4c-2-1.2-7-3.7-13.7-3.7C390.1,744.1,385.4,746.6,383.3,747.8L383.3,747.8z M552.1,731.5v49.8
		c0,4.6,3.8,8.3,8.3,8.3h48.9c3.9,0,7-3.1,7-7v-50.9c0-2.9-2.4-5.4-5.4-5.4h-53.8C554.4,726.3,552.1,728.6,552.1,731.5L552.1,731.5z
		 M557.2,718.3h55.7c1.6,0,3-1.1,3.2-2.6c0.2-1.7-0.5-3.6-4.8-3.6h-54c-1.8,0-3.2,1.4-3.2,3.1C553.9,716.9,555.4,718.3,557.2,718.3
		L557.2,718.3z M559.7,712.1c0,0,7.2-14.5,21-14.5c26-0.1,28.7,14.5,28.7,14.5H559.7z M559.7,712.1"/>
	<path class="st2" d="M587.2,702.5h-4.3c-0.7,0-1.4-0.3-1.9-0.8c-0.5-0.5-0.8-1.2-0.8-1.9v-5.5c0-1.5,1.2-2.7,2.7-2.7h4.3
		c1.5,0,2.7,1.2,2.7,2.7v5.5c0,0.7-0.3,1.4-0.8,1.9C588.6,702.2,588,702.5,587.2,702.5L587.2,702.5z M639.1,562.6
		c2.7-1.8,9-5.5,17.7-6c11-0.6,18.9,4.2,21.5,6l-4.2-15.2c-0.6-2.3-2.7-3.8-5-3.8h-21.5c-2.1,0-3.9,1.4-4.4,3.4L639.1,562.6z
		 M678.3,629.3c-2.7,1.8-9,5.5-17.7,6c-11,0.6-18.9-4.2-21.5-6l4.2,15.2c0.6,2.3,2.7,3.8,5,3.8h21.5c2.1,0,3.9-1.4,4.4-3.4
		L678.3,629.3z M678.3,629.3"/>
	<path class="st2" d="M627.1,595.4c0,11.2,6,21.5,15.7,27.1c9.7,5.6,21.7,5.6,31.4,0c9.7-5.6,15.7-15.9,15.7-27.1
		c0-11.2-6-21.5-15.7-27.1c-9.7-5.6-21.7-5.6-31.4,0C633.1,573.9,627.1,584.2,627.1,595.4L627.1,595.4z M776.4,555.9h-3.2
		c-1.3,0-2.4-1.1-2.4-2.4v-11.7c0-1.3,1.1-2.4,2.4-2.4h3.2c1.3,0,2.4,1.1,2.4,2.4v11.7C778.8,554.8,777.7,555.9,776.4,555.9
		L776.4,555.9z M804.2,555.9h-3.4c-1.4,0-2.6-1.1-2.6-2.6v-14.2c0-1.4,1.1-2.6,2.6-2.6h3.4c1.4,0,2.6,1.1,2.6,2.6v14.2
		C806.7,554.8,805.6,555.9,804.2,555.9L804.2,555.9z M832.2,555.9h-3.6c-0.7,0-1.4-0.3-1.9-0.8c-0.5-0.5-0.8-1.2-0.8-1.9V542
		c0-0.7,0.3-1.4,0.8-1.9c0.5-0.5,1.2-0.8,1.9-0.8h3.6c0.7,0,1.4,0.3,1.9,0.8c0.5,0.5,0.8,1.2,0.8,1.9v11.2
		C834.8,554.7,833.6,555.9,832.2,555.9L832.2,555.9z M834.4,641.2h-63.2c-2.1,0-4.2-0.8-5.7-2.3c-1.5-1.5-2.4-3.6-2.3-5.7v-65.9
		c0-0.9,0.3-1.7,0.9-2.3c0.6-0.6,1.4-0.9,2.3-0.9h73.3c1.6,0,2.9,1.3,2.9,2.9v65.9c0,2.2-0.9,4.3-2.4,5.8
		C838.7,640.3,836.6,641.2,834.4,641.2L834.4,641.2z M834.4,641.2"/>
	<path class="st2" d="M841.2,582.8c0,0,14.6,1.6,19.5,9.7c5.5,9.1,2.7,19.7-3.5,24.7c-6.5,5.2-14.5,5.2-14.5,5.2V615
		c0,0,13.7-4,12.5-13.5c-1.2-9.5-14-11-14-11V582.8z M804.2,440.7c-1.4,2.4-1.3,5.4,0.1,7.8c3.3,5.7,10.8,13.9,19.3,19.5
		c11.4,7.5,20.7,6,20.7,6s14.2,13,18.5,14c4.3,1,5.5-1.2,5.5-4.8v-14c0,0,10-3.7,15.2-9c5.2-5.2,8.2-8.7,11.3-7.7
		c3,1,10.5,11.2,16.2,12.2c5.8,1,10-2.5,8-8.5c-2-6-5.5-11.7-5.5-11.7s6-8.1,6-13.8c0-5.8-5.8-10.2-11-7.5c-5.2,2.7-11,12-14.5,12
		c-3.5,0-10.7-9.6-17.7-12.8c-7-3.2-8.5-4.2-8.5-4.2s1.7-15,0-17.2c-1.7-2.3-8.2,0.2-12.3,3.3c-4.1,3-11,10.2-11,10.2
		s-12.5-0.2-27,9.7C811.3,428.8,806.7,436.2,804.2,440.7L804.2,440.7z M760.7,292.2c0,15.2,8.1,29.3,21.3,36.9
		c13.2,7.6,29.4,7.6,42.6,0c13.2-7.6,21.3-21.7,21.3-36.9c0-15.2-8.1-29.3-21.3-36.9c-13.2-7.6-29.4-7.6-42.6,0
		C768.9,263,760.7,277,760.7,292.2L760.7,292.2z M760.7,292.2"/>
	<path class="st2" d="M771,226.2c0,0,10.7-2.4,18.5,0.8c10.2,4.2,11.3,18.5,11.3,18.5s-9.5,5.5-19.5-2
		C771.3,236,771,226.2,771,226.2L771,226.2z M826.7,231.3c0,0-8.1-1.8-14,0.6c-7.7,3.2-8.5,14-8.5,14s7.2,4.2,14.8-1.5
		C826.6,238.8,826.7,231.3,826.7,231.3L826.7,231.3z M637.5,329.4h43.7c0.4,0,0.5-0.5,0.2-0.7c-1.9-1.1-6.1-3.3-11.1-5.2
		c-7-2.5-9-4.2-9-4.2v-14.9c0,0,9-7.5,15-12.2c6-4.6,15.7-17.4,15.7-28.1c0-10.7-4-27.8-4-27.8h-59.6c0,0-4.2,23.8-2,33.8
		c3.8,12.7,15,21.9,20.7,27.2c5.7,5.2,8.5,7.5,8.5,7.5v15.2l-18.3,8.3C636.7,328.6,636.9,329.4,637.5,329.4L637.5,329.4z
		 M637.5,329.4"/>
	<path class="st1" d="M436.5,385.9l19.5-41.4l15,40.4l16,2v14.2l24.5-5l-17.7-50.4l47.4,20l-11.1,33.7l23.1-5.2l20.5-49.6l33.8,26.2
		l-33.3,25.7l33.3-0.2l8.2,25.7h-21.2l-7.5,31l27.3,5.6l8.8,24.5l-32.5,3.7l-7.5,52.1l-17.7,11.5l-11.3-65.9l-21.4-1.5l-13.3,56.2
		l-18.7,11.2l-2.2-63.9l-16-1.7l-6.2-19.5l-7.3,9.5l-10,76.8L419,523.4l25.5-7.2l-4.7-37l-14,11.8l-12-40l27.7-4.5l-3.3-27.9
		l-8.2-1.8l-13.3-24.2L436.5,385.9z M436.5,385.9"/>
	<path class="st2" d="M478.5,407.6l-7.7,10.2l-4,28.7l24-1.4l-7.3,15.9l24-8.5l-5.4-24.9l-16.1-4.5L478.5,407.6z M538.7,427.3
		l20.2-4.5l2.8,28.4l-27.5,5.3L538.7,427.3z M538.7,427.3"/>
</g>
</svg>
