<?xml version="1.0" encoding="utf-8"?>
<!-- Generator: Adobe Illustrator 21.0.0, SVG Export Plug-In . SVG Version: 6.00 Build 0)  -->
<svg version="1.1" id="图层_1" xmlns="http://www.w3.org/2000/svg" xmlns:xlink="http://www.w3.org/1999/xlink" x="0px" y="0px"
	 viewBox="0 0 1024 1024" style="enable-background:new 0 0 1024 1024;" xml:space="preserve">
<style type="text/css">
	.st0{fill:#FF9700;}
	.st1{fill:#E52E00;}
</style>
<g>
	<path class="st0" d="M976.9,22.7H47c-25.8,0-47,21.2-47,47v145.5c0-25.8,21.2-47,47-47h930c25.8,0,47,21.2,47,47V69.7
		C1023.9,43.9,1002.7,22.7,976.9,22.7L976.9,22.7z M976.9,22.7"/>
	<path class="st1" d="M976.9,168.3H47c-25.8,0-47,21.2-47,47v739c0,25.8,21.2,47,47,47h930c25.8,0,47-21.2,47-47v-739
		C1023.9,189.4,1002.7,168.3,976.9,168.3L976.9,168.3z M851.4,357.5c0,90.7-35.3,175.9-99.4,240.1c-64.2,64-149.4,99.4-240.1,99.4
		c-90.7,0-175.9-35.3-240.1-99.4c-64-64.2-99.4-149.4-99.4-240.1v-9.6H233v9.6c0,153.8,125.2,279,279,279s279-125.2,279-279v-9.6
		h60.5V357.5z M851.4,357.5"/>
</g>
</svg>
