<?xml version="1.0" encoding="utf-8"?>
<!-- Generator: Adobe Illustrator 21.0.0, SVG Export Plug-In . SVG Version: 6.00 Build 0)  -->
<svg version="1.1" id="图层_1" xmlns="http://www.w3.org/2000/svg" xmlns:xlink="http://www.w3.org/1999/xlink" x="0px" y="0px"
	 viewBox="0 0 1024 1024" style="enable-background:new 0 0 1024 1024;" xml:space="preserve">
<style type="text/css">
	.st0{clip-path:url(#SVGID_2_);fill:#F7B400;}
	.st1{fill:#FFFFFF;}
</style>
<g>
	<g>
		<defs>
			<rect id="SVGID_1_" x="0.6" width="1022.8" height="1024"/>
		</defs>
		<clipPath id="SVGID_2_">
			<use xlink:href="#SVGID_1_"  style="overflow:visible;"/>
		</clipPath>
		<path class="st0" d="M996.8,448.4l-97.6-97.4V213.1c0-49.2-40-89.3-89.3-89.3H672.1l-97.4-97.4C557.9,9.7,536.1,0.9,514.1,0.2h-5
			c-22,0.6-43.8,9.4-60.5,26.2l-97.4,97.4H213.3c-49.4,0-89.3,40-89.3,89.3v137.9l-97.4,97.4C9.2,465.7,0.4,488.6,0.4,511.6
			c0,22.8,8.8,45.7,26.2,63.1l97.4,97.4V810c0,49.2,40,89.3,89.3,89.3h137.9l97.4,97.4c35,34.8,91.3,34.8,126.3,0l97.4-97.4h137.9
			c49.2,0,89.3-40,89.3-89.3V672.1l97.4-97.4C1031.6,539.9,1031.6,483.4,996.8,448.4L996.8,448.4z M996.8,448.4"/>
	</g>
	<path class="st1" d="M662.5,583.3C653.5,507.7,589.1,449,511,449c-77.9,0-142.3,58.7-151.3,134.3C296.7,585.2,246,637.1,246,700.6
		c0,64.9,52.6,117.3,117.5,117.3H660c64.9,0,117.3-52.6,117.3-117.3C777.3,636.7,726.2,584.7,662.5,583.3L662.5,583.3z M662.5,583.3
		"/>
	<path d="M632.7,444.8c0,20.9,17,37.9,37.9,37.9c20.9,0,37.9-17,37.9-37.9c0-20.9-17-37.9-37.9-37.9
		C649.7,406.9,632.7,423.9,632.7,444.8L632.7,444.8z M313.4,444.8c0,20.9,17,37.9,37.9,37.9c20.9,0,37.9-17,37.9-37.9
		c0-20.9-17-37.9-37.9-37.9C330.4,406.9,313.4,423.9,313.4,444.8L313.4,444.8z M603.4,583.3H418.6c-17.2,0-32.5,23.3-7.5,41.7
		l61,45.7c0,0,16.8,12.1,38.8,11.9c22,0.2,38.8-11.9,38.8-11.9l61-45.7C635.7,606.5,620.6,583.3,603.4,583.3L603.4,583.3z
		 M603.4,583.3"/>
</g>
</svg>
