<?xml version="1.0" encoding="utf-8"?>
<!-- Generator: Adobe Illustrator 21.0.0, SVG Export Plug-In . SVG Version: 6.00 Build 0)  -->
<svg version="1.1" id="图层_1" xmlns="http://www.w3.org/2000/svg" xmlns:xlink="http://www.w3.org/1999/xlink" x="0px" y="0px"
	 viewBox="0 0 1024 1024" style="enable-background:new 0 0 1024 1024;" xml:space="preserve">
<style type="text/css">
	.st0{fill:#FF002B;}
	.st1{fill:#FFFFFF;}
	.st2{fill:#111111;}
</style>
<g>
	<path class="st0" d="M884.5,0H139.5C63.2,0,1,61.2,1,138.5v744.9C1,959.8,62.2,1022,139.5,1022h744.9
		c76.3,0,138.5-61.2,138.5-138.5V138.5C1023,61.2,960.8,0,884.5,0L884.5,0z M884.5,0"/>
	<path class="st1" d="M927.6,1016c-13.1,4-28.1,6-40.2,6C899.5,1022,912.6,1020,927.6,1016L927.6,1016z M927.6,1016"/>
	<path class="st2" d="M1,138.5v678.7V138.5z M96.4,1016c15.1,4,28.1,6,42.2,6C124.5,1022,111.4,1020,96.4,1016L96.4,1016z
		 M96.4,1016"/>
	<path class="st1" d="M935.7,970.8c0-59.2-47.2-110.4-106.4-112.4c-2-2-4-2-6-2c-2,0-4,0-6,2h13.1c17.1,8,30.1,55.2,30.1,112.4
		c0,19.1-2,36.1-4,51.2h30.1c15.1,0,28.1-2,40.2-6C933.6,1000.9,935.7,985.9,935.7,970.8L935.7,970.8z M935.7,970.8"/>
	<path class="st2" d="M207.8,858.4c-2-2-4-2-6-2c-2,0-4,0-6,2H207.8z M207.8,858.4"/>
	<path class="st1" d="M194.8,858.4c-59.2,2-106.4,53.2-106.4,112.4c0,15.1,4,30.1,11,45.2c13.1,4,25.1,6,40.2,6h30.1
		c-2-15.1-4-32.1-4-51.2C164.6,913.6,177.7,866.4,194.8,858.4L194.8,858.4z M816.2,858.4c-59.2,2-106.4,53.2-106.4,112.4
		c0,19.1,4,36.1,13.1,51.2h68.3c-2-15.1-4-32.1-4-51.2C787.1,913.6,799.1,866.4,816.2,858.4L816.2,858.4z M533.1,947.7h-42.2
		c-13.1,0-17.1,6-11,15.1l13.1,17.1c4,6,11,15.1,13,19.1c2,2,2,2,6,2c4,0,6-2,6-2c4-4,8-13.1,13-19.1l11-17.1
		C550.1,953.7,546.1,947.7,533.1,947.7L533.1,947.7z M207.8,858.4c17.1,8,32.1,55.2,32.1,112.4c0,19.1-2,36.1-4,51.2h68.3
		c8-15.1,13.1-32.1,13.1-51.2C314.2,911.6,267,860.4,207.8,858.4L207.8,858.4z M927.6,1016c19.1-6,38.1-17.1,53.2-30.1
		C963.8,998.9,946.7,1008.9,927.6,1016L927.6,1016z M927.6,1016"/>
	<path class="st2" d="M48.2,985.9C20.1,959.8,1,923.6,1,883.5v-68.3v68.3C1,923.6,18.1,959.8,48.2,985.9L48.2,985.9z M96.4,1016
		c-19.1-6-36.1-15.1-51.2-30.1C60.2,998.9,80.3,1008.9,96.4,1016L96.4,1016z M96.4,1016"/>
	<path class="st2" d="M977.8,683.7c-40.2-23.1-81.3,19.1-87.3,28.1C837.3,773,778,847.3,671.6,847.3H352.4
		c-106.4,0-163.6-76.3-218.9-136.5c-8-8-47.2-51.2-87.3-28.1C10,704.8,3,771,1,815.2v70.3c0,40.2,17.1,76.3,47.2,102.4
		c15.1,13.1,32.1,23.1,51.2,30.1c-6-13.1-11-28.1-11-45.2c0-59.2,47.2-110.4,106.4-112.4c2-2,4-2,6-2c2,0,4,0,6,2
		c59.2,2,106.4,53.2,106.4,112.4c0,19.1-4,36.1-13.1,51.2h421.6c-8-15.1-13.1-32.1-13.1-51.2c0-59.2,47.2-110.4,106.4-112.4
		c2-2,4-2,6-2c2,0,4,0,6,2c59.2,2,106.4,53.2,106.4,112.4c0,15.1-4,30.1-11,45.2c19.1-6,38.2-17.1,53.2-30.1
		c28.1-25.1,45.2-61.2,45.2-100.4v-70.3C1021,771,1014,704.8,977.8,683.7L977.8,683.7z M544.1,962.8l-11,15.1
		c-6,6-11,15.1-13.1,19.1c-2,2-4,4-8,4c-4,0-6-2-6-2c-4-4-8-13.1-13-19.1l-13.1-17.1c-6-8,0-15.1,11-15.1h42.2
		C546.1,947.7,550.1,953.7,544.1,962.8L544.1,962.8z M544.1,962.8"/>
	<path class="st2" d="M829.2,858.4h-13.1c-17.1,8-30.1,55.2-30.1,112.4c0,19.1,2,36.1,4,51.2h66.3c2-15.1,4-32.1,4-51.2
		C859.4,913.6,846.3,866.4,829.2,858.4L829.2,858.4z M207.8,858.4h-13.1c-17.1,8-32.1,55.2-32.1,112.4c0,19.1,2,36.1,4,51.2h66.3
		c2-15.1,4-32.1,4-51.2C236.9,913.6,224.9,866.4,207.8,858.4L207.8,858.4z M207.8,858.4"/>
	<path class="st1" d="M341.3,353.4h146.6v-38.1H337.3v-81.3h136.5v-40.2H162.6v38.1h136.5v81.3H147.6v38.2h146.6
		c-15.1,57.2-61.2,106.4-146.6,155.6l19.1,34.1c53.2-30.1,119.5-74.3,153.6-142.6c8,17.1,19.1,34.1,34.1,51.2
		c28.1,32.1,66.3,61.2,119.5,91.4l19.1-34.1C403.6,459.8,356.4,410.6,341.3,353.4L341.3,353.4z M680.7,287.1h38.1V255h83.3v32.1
		h38.2V255h38.1v-38.1h-38.1v-23.1h-38.2v25.1h-83.3v-25.1h-38.1v25.1h-36.1V257h36.1V287.1z M603.4,212.8
		c-21.1-21.1-55.2-21.1-74.3-19.1h-4v38.1h6c13.1,0,36.1,0,47.2,8c2,2,6,6,6,19.1v13l-59.2,36.1l19.1,34.1l40.2-23.1v42.2
		l-59.2,36.1l19.1,34.1l40.2-23.1v32.1c0,8-4,23.1-11,30.1C554.2,493.9,524,511,524,511l19.1,34.1c2,0,38.2-21.1,59.2-49.2
		c11-15.1,19.1-36.1,19.1-55.2V262C620.4,240.9,614.4,225.9,603.4,212.8L603.4,212.8z M643.5,313.2v174.7
		c0,32.1,25.1,57.2,57.2,57.2h119.5c32.1,0,57.2-25.1,57.2-57.2V313.2H643.5z M741.9,505h-40.2c-11,0-19.1-8-19.1-19.1v-38.2h59.2
		V505z M741.9,408.6h-59.2v-57.2h59.2V408.6z M840.3,487.9c0,11-8,19.1-19.1,19.1h-40.2v-59.2h59.2V487.9z M840.3,408.6h-59.2v-57.2
		h59.2V408.6z M840.3,408.6"/>
</g>
</svg>
