<?xml version="1.0" encoding="utf-8"?>
<!-- Generator: Adobe Illustrator 21.0.0, SVG Export Plug-In . SVG Version: 6.00 Build 0)  -->
<svg version="1.1" id="图层_1" xmlns="http://www.w3.org/2000/svg" xmlns:xlink="http://www.w3.org/1999/xlink" x="0px" y="0px"
	 viewBox="0 0 1024 1024" style="enable-background:new 0 0 1024 1024;" xml:space="preserve">
<style type="text/css">
	.st0{fill:#FF5500;}
</style>
<path class="st0" d="M1024,838V186C1024,83.7,940.3,0,838,0H186C83.7,0,0,83.7,0,186v652c0,101.3,82.1,184.4,183,186h658
	C941.9,1022.4,1024,939.3,1024,838z M162.5,259.2c4-8.9,9.6-16.5,16.7-22.7c7-7,15.4-12.5,24.7-16c9.3-3.5,19.4-5.3,30-5.3
	c10.5,0,20.9,1.8,30.7,5.3c9.8,3.6,18.2,8.9,25.4,16c7.1,6.3,12.8,14,16.7,22.7c4,8.8,6,18.4,6,28c0,9.8-2,19.1-6,28
	c-3.8,8.7-9.5,16.4-16.7,22.7c-7.1,6.2-15.6,11.3-25.4,15.4c-9.7,4-20.2,6-30.7,6c-10.7,0-20.7-2-30-6c-9.3-4-17.6-9.1-24.7-15.4
	c-7.1-6.2-12.7-13.8-16.7-22.7c-4-8.8-6-18.4-6-28C156.5,277.6,158.6,268,162.5,259.2z M313.4,572.9c-4,22.2-12.7,45.8-26,70.7v0
	c-9.8,17.8-18,34.5-24.7,50c-6.4,14.9-12.8,29.8-19.4,44.7c-6,13.8-12,27.6-18,41.4c-5.8,13.4-11.8,26.8-18,40
	c-10-7.3-20.1-14.6-30-22c-10.5-7.7-20.9-15.5-31.4-23.4c-10-7.3-20.1-14.6-30-22c-10.2-7.6-20.7-14.9-31.4-22
	c11.6-8.9,23.4-17.6,35.4-26c12-8.4,23.8-16.7,35.4-24.7c11.4-8.8,22.8-17.7,34-26.7c10.7-8.5,20.8-17.9,30-28
	c18.7-18.7,28-36.5,28-53.4c0-16.9-5.3-32.9-16-48c-11.6-15.1-27.4-29.6-47.4-43.4c-20-13.8-41.6-26.9-64.7-39.4
	c4.3-5.2,8.8-10.3,13.3-15.4c4.6-5,9-10.1,13.3-15.4c4.5-5.4,9.2-10.8,14-16c4.6-5,9.2-9.9,14-14.7c37.4,21.4,66.7,42.7,88.1,64.1
	c21.4,21.4,36,42.7,44,64.1C314.9,528.8,317.4,550.7,313.4,572.9z M938.6,543.5c-0.9,24.3-2.2,48.5-4,72.7
	c-1.8,23.6-4.5,47.4-8,71.4h0c-3.6,26.7-9.3,48.1-17.4,64.1c-8,16-18.2,28.5-30.7,37.4c-11.6,8.9-25.2,14.9-40.7,18
	c-15.6,3.1-32.3,4.7-50,4.7c-13.3,0.9-26.5,1.3-39.4,1.3h-38c-13.3,0-26.5-0.2-39.4-0.7c-13.1-0.4-26.2-0.7-39.4-0.7
	c0-3.5-0.2-7.3-0.7-11.3c-0.5-4-0.7-7.8-0.7-11.3c-0.8-4-1.3-8-1.3-12c0-3.5-0.5-7.6-1.3-12h24c8,0,16,0.5,24,1.3h25.4
	c8,0,16-0.4,24-1.3c16-0.9,30-3.1,42-6.7c12-3.6,22-9.3,30-17.4c8-8,14-18.7,18-32c4-13.3,6-29.8,6-49.4l4-152.2
	c0.9-20.5,1.3-41.2,1.3-62.1c0-20.9-2.2-40.2-6.7-58.1c-5.3-17.8-13.6-32.9-24.7-45.4c-11.1-12.5-27.4-20.9-48.7-25.4
	c-15.8-3.5-31.9-5.1-48.1-4.7c-16,0.5-32.5,1.6-49.4,3.3c-16,0.9-32,2.5-48.1,4.7c-16,2.2-32.5,3.8-49.4,4.7c-2.7,0-5.6,0.5-8.7,1.3
	c-3.3,0.9-6.6,1.4-10,1.3c-2.7,0.9-5.6,1.8-8.7,2.7c-3.1,0.9-6.5,1.8-10,2.7l50.7,38.7L523.6,410h256.3v50.7H627.7v58.7h152.2v41.4
	H627.7v102.8c6-1.7,12-3.3,18-4.7c6-1.4,12-2.5,18-3.3c5.9-1.7,11.9-3,18-4c6.1-0.9,12.1-2.3,18-4c-2.7-2.7-5-5.9-6.7-9.3
	c-1.7-3.4-4-6.6-6.7-9.3c-1.8-3.5-3.8-6.9-6-10c-2.3-3.2-4.3-6.5-6-10c4.4-1.8,9.1-3.5,14-5.3c5.2-1.9,10.4-4.2,15.4-6.7
	c4.8-1.9,9.7-3.7,14.7-5.3c4.9-1.6,9.8-3.4,14.7-5.3c11.6,7.1,21.4,14.9,29.4,23.4c8,8.5,14.2,17.6,18.7,27.4
	c4.4,9.7,7.3,20.1,8.7,30.7c1.3,10.7,0.7,22.3-2,34.7c-4.3,4.3-8.8,8.6-13.3,12.7c-4.3,3.9-8.8,7.7-13.3,11.3
	c-5.2,3.4-10.1,7.2-14.7,11.3c-4.3,3.9-8.8,7.7-13.3,11.3c-2.8-3.8-5.3-7.8-7.3-12c-2.3-4.5-4.7-9-7.3-13.3c-2.8-3.8-5.3-7.8-7.3-12
	c-2.3-4.5-4.7-9-7.3-13.3c-69.4,25.8-128.8,42.9-178.2,51.4c-49.4,8.5-88.8,8.7-118.1,0.7c-29.4-8.9-48.5-25.8-57.4-50.7
	c-8.9-24.9-7.6-58.7,4-101.4h101.4c0,16.9,0.9,30.5,2.7,40.7c1.8,10.2,4.4,18.5,8,24.7c4.4,5.3,9.8,9.1,16,11.3
	c6.2,2.2,13.8,3.8,22.7,4.7h5.3V560.9H359.4v-40h150.8v-61.4h-29.4v-8l-62.7,60.1l-54.7-26.7l105.4-136.1
	c-11.4,4.4-22.3,9.7-32.7,16c-10.3,6.3-20.3,12.9-30,20c-17.7,14.2-33.9,30.3-48,48.1c-0.8,2.5-1.7,4.9-2.7,7.3
	c-0.9,2.2-1.8,4.7-2.7,7.3c-0.9,1.8-2,3.8-3.3,6c-1.4,2.3-2.5,4.8-3.3,7.3c-6.7-5-13.4-10.1-20-15.3c-6.4-5-13.1-9.7-20-14
	c-6.5-4.6-12.9-9.3-19.3-14c-6.9-5.1-13.8-10.2-20.7-15.3c10.6-16.9,21.5-33.5,32.7-50.1c11.1-16.5,22-33.1,32.7-50
	c10.7-16,21.6-32.2,32.7-48.7c11.2-16.5,22.1-33.2,32.7-50.1c8.9,2.7,18,5.6,27.4,8.7c9.1,3,18.2,5.9,27.4,8.7
	c8.9,2.7,18,5.6,27.4,8.7c9.3,3.1,18.5,6,27.4,8.7c-2.5,5-4.7,10.1-6.7,15.3c-1.8,4.9-4,9.6-6.7,14c-1.7,5.2-3.7,10.3-6,15.4
	c-2.1,4.6-4.1,9.3-6,14c42.7-19.6,89.9-34,141.5-43.4c51.6-9.3,100.1-11.3,145.5-6c44.5,4.5,82.5,17.8,114.1,40
	c31.6,22.3,49.2,55.2,52.7,98.8c2.7,28.5,4.2,55.6,4.7,81.4C939.8,493.3,939.5,518.6,938.6,543.5z"/>
</svg>
