<?xml version="1.0" encoding="utf-8"?>
<!-- Generator: Adobe Illustrator 21.0.0, SVG Export Plug-In . SVG Version: 6.00 Build 0)  -->
<svg version="1.1" id="图层_1" xmlns="http://www.w3.org/2000/svg" xmlns:xlink="http://www.w3.org/1999/xlink" x="0px" y="0px"
	 viewBox="0 0 1024 1024" style="enable-background:new 0 0 1024 1024;" xml:space="preserve">
<style type="text/css">
	.st0{clip-path:url(#SVGID_2_);fill:#E1017E;}
	.st1{fill:#FFFFFF;}
</style>
<g>
	<g>
		<defs>
			<rect id="SVGID_1_" x="0.5" width="1022.9" height="1024"/>
		</defs>
		<clipPath id="SVGID_2_">
			<use xlink:href="#SVGID_1_"  style="overflow:visible;"/>
		</clipPath>
		<path class="st0" d="M128.2,0.6h766.6c85.2,0,127.8,42.6,127.8,127.8V895c0,85.2-42.6,127.8-127.8,127.8H128.2
			C43,1022.8,0.4,980.2,0.4,895V128.4C0.4,43.2,43,0.6,128.2,0.6L128.2,0.6z M128.2,0.6"/>
	</g>
	<g>
		<g>
			<path class="st1" d="M163.8,415.7c11.4-12.7,22.5-25.7,33.8-38.4c12.7,0,25.3,0,38,0.1c-8.1,9.6-17,18.6-25.1,28.2
				c14.2,0.1,28.4-0.1,42.6-0.1c0.1-9.4,0-18.8,0-28.2c9.7-0.1,19.4,0,29.1,0c0.1,9.4,0,18.8,0,28.2c16.9,0,33.9,0,50.8,0
				c0,6.9,0,13.8,0,20.7c-16.9,0.1-33.8,0-50.7,0.1c0,15.7,0,31.3,0,47c17.2,0.1,34.4,0,51.6,0.1c0,7.8,0.1,15.6,0,23.5
				c-17.2,0.1-34.5,0-51.7,0c0,16,0,32,0,48c17.3,0,34.5,0,51.7,0c0,7.5,0.1,15,0,22.5c-17.2,0.1-34.5,0-51.7,0c0,16,0,32,0,48
				c17.2,0.1,34.5,0,51.7,0c0,7.2,0.1,14.5,0,21.7c-41.3,0.2-82.5,0-123.8,0.1c0.1,3.1,0,6.3,0,9.4c-9.9,0-19.8,0-29.7,0
				c-0.1-70.8,0.1-141.7-0.1-212.5c-4.8,3.7-9.3,7.8-14.1,11.6c-1.2,1.1-3.1,2-2.8,3.9c0,43.6,0,87.3,0,130.9c0,8.5-3.1,17.3-9.7,23
				c-8.6,7.5-20.5,9.6-31.5,9.9c-16,0.1-32,0-48,0c-0.1-74.1-0.1-148.1,0-222.2c29.8-0.1,59.6,0,89.4,0
				C163.9,399.5,163.7,407.6,163.8,415.7 M105.4,419.7c0.1,55.5,0,111,0.1,166.6c7.5-0.5,15.6,1.5,22.5-1.9c6.8-4.1,5.7-13,5.4-19.7
				c-0.1-48.3,0-96.6,0-144.8C124,419.6,114.7,419.7,105.4,419.7 M212.1,473.3c12.8,0.3,25.5,0.1,38.3,0.1c0.1-15.5,0.1-31,0-46.5
				c-12.7-0.2-25.3,0.1-38-0.2C211.6,442.2,212.3,457.8,212.1,473.3 M212,497.9c0.2,15.5-0.4,31,0.3,46.5c12.7-0.3,25.4,0,38-0.2
				c0-15.5,0.1-31,0-46.4C237.6,497.8,224.8,497.6,212,497.9 M212.1,568.6c0,15.5-0.1,31,0,46.5c12.7,0.1,25.5,0,38.2,0.1
				c0.2-15.5,0.1-31.1,0-46.6C237.6,568.6,224.8,568.5,212.1,568.6L212.1,568.6z M401.7,377.4c72.1-0.1,144.3-0.1,216.4,0
				c-0.1,26.7,0,53.3-0.1,80c-0.1,9.2-3.9,18.5-11.4,24.1c-9.8,7.3-22.5,9.1-34.4,9.3c-56.8,0.1-113.6-0.1-170.4,0.1
				C401.4,453,401.9,415.2,401.7,377.4 M433.2,396.5c-0.1,25,0,49.9-0.1,74.9c44.2,0,88.4,0.1,132.6-0.1c8.4-0.1,19.2-4.3,19.8-14
				c0.1-20.3,0.2-40.6-0.1-60.9C534.8,396.6,484,396.5,433.2,396.5L433.2,396.5z M770,377.3c17.2,0.2,34.4-0.4,51.5,0.3
				c42.9,42.3,85.5,84.9,128.2,127.4c-12.2-0.1-24.4,0-36.6,0c-2,0.2-3.4-1.3-4.8-2.4c-6.2-5.1-12.5-10.1-18.7-15.2
				c-1-1-2.3-1.5-3.8-1.4c-55.9,0-111.7,0-167.6,0c-1.7-0.2-3,1-4.2,1.9c-6.6,5.4-13.2,10.7-19.8,16c-1.1,1.1-2.8,1-4.2,1
				c-13.9-0.1-27.8,0-41.6-0.1C688.6,462.1,729.5,419.9,770,377.3 M797.4,399.7c-19.1,21.3-38.8,42.1-57.6,63.6
				c40.4,0.1,80.8,0.1,121.2,0C840.1,441.8,818.8,420.6,797.4,399.7L797.4,399.7z M380.3,514.4c39.6,0.1,79.3,0,118.9,0
				c0.1,30.2,0,60.4,0.1,90.7c0.1,10.2-2.4,21-9.3,28.7c-8.6,9.5-22,12.6-34.4,12.8c-25.1,0.1-50.2,0-75.2,0.1
				C380.3,602.6,380.3,558.5,380.3,514.4 M409.8,533.6c0.1,31,0,62,0,93c13.1,0.1,26.2,0.3,39.2-0.1c9.6-0.1,18.4-7.9,18.7-17.6
				c0.1-25.1,0.1-50.2,0-75.3C448.4,533.6,429.1,533.5,409.8,533.6L409.8,533.6z M512.1,514.4c39.6,0,79.3,0,118.9,0
				c0,30.5,0,61.1,0,91.6c0,10.8-3.1,22.1-11.2,29.7c-8.7,8-20.9,10.8-32.5,10.9c-25.1,0.2-50.2,0-75.2,0.1
				C512,602.6,512.1,558.5,512.1,514.4 M541.5,533.6c0.1,31,0,62,0,93c12.5,0.1,24.9,0.1,37.4,0c10.2,0.5,20.2-7.2,20.6-17.7
				c0.2-25.1,0.1-50.2,0-75.3C580.2,533.6,560.9,533.5,541.5,533.6L541.5,533.6z M669.3,533.3c85,0,169.9-0.1,254.9,0
				c0,7.6,0,15.2,0,22.8c-57.7,0.2-115.5,0.1-173.2,0.1c-7.2,21.2-14.2,42.3-21.3,63.5c45-0.1,90.1,0.1,135.1-0.1
				c6.6,0.2,12.5-5.9,10.4-12.6c-3.2-10.4-7.1-20.7-10.4-31.1c9.8-0.1,19.6-0.2,29.4,0c5.3,13.1,11.4,26.2,14.6,40.1
				c1.5,7.5,1.3,16.2-4.1,22.1c-6.7,7.1-17.2,8.5-26.5,8.6c-64.9,0-129.9,0.1-194.8,0c11.2-30.2,22.7-60.3,33.9-90.4
				c-16,0-32,0-47.9,0C669.2,548.6,669.2,540.9,669.3,533.3L669.3,533.3z M669.3,533.3"/>
		</g>
	</g>
</g>
</svg>
