<?xml version="1.0" encoding="utf-8"?>
<!-- Generator: Adobe Illustrator 21.0.0, SVG Export Plug-In . SVG Version: 6.00 Build 0)  -->
<svg version="1.1" id="图层_1" xmlns="http://www.w3.org/2000/svg" xmlns:xlink="http://www.w3.org/1999/xlink" x="0px" y="0px"
	 viewBox="0 0 1024 1024" style="enable-background:new 0 0 1024 1024;" xml:space="preserve">
<style type="text/css">
	.st0{fill:#FED548;}
</style>
<path class="st0" d="M1023.2,177.5L1023.2,177.5c0.1-48.4-17.1-90.5-51-125.2l-0.1-0.1c-8.6-8.6-17.9-16.2-27.4-22.7
	c-9.6-6.5-19.7-12-30.1-16.3c-10.4-4.3-21.4-7.7-32.6-9.8c-11.3-2.2-23-3.3-35-3.3l0,0L176.9,1.7c-12.1,0-24,1.1-35.3,3.2
	s-22.3,5.4-32.6,9.7c-10.4,4.3-20.4,9.7-29.8,16C69.8,37,60.8,44.5,52.4,52.9C17.9,87.8,0.3,129.9,0.3,178l1.1,669.7
	c-0.1,48.6,17.2,90.6,51.2,124.7l0,0c8.7,8.5,17.9,16,27.5,22.5c9.6,6.4,19.7,11.8,30.1,16.1c10.4,4.3,21.3,7.6,32.5,9.7
	c11.2,2.2,22.9,3.2,34.8,3.2l670.2-0.5c24,0,46.7-4.3,67.5-12.8s40.1-21.3,57.3-38.1l0.1-0.1v-0.1c0,0,0,0,0.1-0.1
	c8.4-8.6,15.9-17.8,22.2-27.3c6.4-9.6,11.7-19.7,16-30.1c4.3-10.5,7.5-21.5,9.6-32.8c2.1-11.3,3.2-23.1,3.2-35.2L1023.2,177.5z"/>
<path d="M176.9,19.4"/>
<g>
	<path d="M115.5,699.8l16.5,7.9c6.9,0.3,12.2-2.4,17.1-7.8c4.5-4.3,7.5-9.6,7.9-16.5l-0.3-176l101.4-0.3l0.3,176
		c-0.3,6.8,2.2,12.8,7.6,17.6l17.1,6.2c6.3,0.1,11.9-1.8,16.9-7.2c4.5-4.3,6.9-9.8,7.3-16.7l0.1-175.3l101.4-0.3L409,683
		c0.3,7,2.7,12.9,7,17.4l17.1,6.2c6.9,0.3,12.6-1.6,17.2-6.4c4.5-4.3,7.1-10.3,7.5-17.2l-0.6-322.4c0.1-6.3-2.4-12.1-6.6-16.7
		l-17.8-7.7l-157.2,0.1c-7,0.3-12.9,2.8-17.4,7c-4.7,4.8-7.1,10.3-7.3,16.7c0.3,7,2.7,13,7,17.4l17.8,7.7h133.6l0.2,74.1l-103.1-0.3
		l0.9-10.5c-0.9-7.2-3.4-13.1-7.7-17.6l-17.4-6.9c-6.8-0.3-12.1,2.5-16.1,6.8c-4.9,5.4-7.9,10.7-8.2,17.6l-0.3,10.7l-101.4,0.3
		l-0.5-98.9c0.3-6.8-1.8-11.9-7.2-16.9l-16.9-6.6c-6.9-0.3-12.8,2.2-17.2,6.4c-4.5,4.3-7.1,10.3-7.5,17.2l0.4,323
		C107.2,690.2,109.9,695.6,115.5,699.8L115.5,699.8z"/>
	<path d="M186.9,387.9l17.6,8.2c6.3,0.1,11.6-2.6,16.5-8c4.5-4.3,6.9-9.8,7.3-16.7l-0.1-31.1c0.1-6.3-2.6-11.6-6.8-16.1l-17.2-7.5
		c-6.8-0.3-12.7,2.3-17.6,7.6c-4.5,4.3-6.9,9.8-6.2,17.1l-0.9,30.1C179.7,378.8,182.4,384.1,186.9,387.9L186.9,387.9z"/>
	<path d="M224.8,576.8l-16.7-7.3c-6.9-0.3-12.1,2.4-16.9,7.2c-4.7,4.8-7.7,10.1-7.9,16.5l0.2,89.9c0.3,7,2.8,13,7.6,17.6l16.1,7.1
		c7-0.3,12.9-2.8,17.6-7.6c4.5-4.3,7.1-10.3,7.5-17.2l0.1-88.6C232.7,587.6,230.2,581.7,224.8,576.8L224.8,576.8z"/>
	<path d="M375.5,576.7l-17.8-7.7c-6.4,0.5-12.3,2.9-16.9,7.2c-4.9,5.4-7.3,11-7,18l0.2,89.9c-0.1,6.3,2.6,11.6,7.4,16.3l16.7,7.3
		c6.8,0.3,12.7-2.3,17.6-7.6c4.5-4.3,6.9-9.8,7.3-16.7l-0.9-89.5C382.2,587,379.7,581.1,375.5,576.7L375.5,576.7z"/>
	<path d="M566.9,371.2c-0.3,6.8,2.3,12.8,6.4,17.2l17.8,7.6c6.4-0.5,11.7-3.1,16.5-8c4.5-4.3,6.9-9.8,7.3-16.7l0.3-6.8l252.9,1
		l0.1,5.7c-0.3,6.8,1.6,12.6,6.4,17.2l17.4,6.9c6.8,0.3,12.7-2.3,17.6-7.6c4.5-4.3,6.9-9.8,6.2-17.1l0.7-29.6
		c-0.3-7-2.7-12.9-7-17.4l-17.8-7.7l-300.9,0.6c-6.8-0.3-12.8,2.2-17.2,6.4c-4.9,5.4-7.3,10.9-7.1,18L566.9,371.2L566.9,371.2z"/>
	<path d="M916.3,440c-0.3-7-2.8-12.9-7-17.4l-17.1-6.1l-301.6-0.9c-7.2,0.9-13.1,3.4-17.6,7.6c-4.5,4.3-6.3,9.9-6.2,17.1v167.1
		l0.8,3.4l-1.1,3.4c0.3,7,2.7,13,7,17.4l17.8,7.7l300.9-0.6c6.8,0.3,12.7-2.3,17.6-7.6c4.5-4.3,6.9-9.8,6.7-16.9l-0.6-4l1.1-3.4
		L916.6,449l-1.7-4.4L916.3,440L916.3,440z M614.8,464.4l102.5,0.1l-0.4,38.5L615,503L614.8,464.4L614.8,464.4z M615.5,590l0.2-37.9
		l101.5-0.9l0.8,38.8L615.5,590L615.5,590z M868,464.3l-0.4,38.5L765.7,503l-0.2-38.7H868z M765.6,589.6l0.2-37.9l101.9-0.1
		l0.4,38.1L765.6,589.6L765.6,589.6z"/>
	<path d="M607.7,665.3L591,658c-6.3-0.1-12.1,2.4-16.9,7.2c-4.7,4.8-7.1,10.3-7.3,16.7c0.3,7,2.7,12.9,7,17.4l16.7,7.3
		c7.1-0.3,13-2.8,17.4-7c4.7-4.8,7.1-10.3,7.3-16.7C615.6,676.1,613.1,670.3,607.7,665.3L607.7,665.3z"/>
	<path d="M909.1,665l-16.7-7.2c-7.1,0.3-13,2.8-17.4,7c-4.9,5.4-7.3,10.9-7.6,17.8c0.5,6.4,3.1,11.7,8,16.5l17.2,7.5
		c6.8,0.3,12.8-2.2,17.6-7.6c4.5-4.3,6.9-9.8,6.1-17.1C916.4,675.6,914.5,669.8,909.1,665L909.1,665z"/>
	<path d="M808.9,665.6l-17.2-7.5c-6.8-0.3-12.6,1.7-17.4,7c-4.5,4.3-7,9.8-6.2,17.1c-0.3,6.8,1.7,12.6,7,17.4l16.7,7.3
		c7.2-0.9,13.1-3.4,17.6-7.6c4.9-5.4,7.3-10.9,6.3-17.6C816,674.8,813.9,669.7,808.9,665.6L808.9,665.6z"/>
	<path d="M690.9,658.6c-6.8-0.3-11.9,1.8-15.9,6.3c-4.9,5.4-7.3,11-7.7,17.8c-0.3,6.8,1.7,12.5,7,17.4l17.1,6.2
		c6.9,0.3,12.8-2.3,17.4-7c4.7-4.8,7.1-10.3,7.3-16.7c-0.3-7-2.8-12.9-7.6-17.6L690.9,658.6L690.9,658.6z"/>
</g>
</svg>
